<svg width="1102" height="1102" viewBox="0 0 1102 1102" fill="none"
    xmlns="http://www.w3.org/2000/svg">
    <circle cx="551" cy="551" r="551" fill="#D9D9D9"/>
    <path d="M198.933 231.369L174.4 231.636L175.2 240.702C177.867 273.502 194 307.636 219.067 333.769C236.8 352.302 258.8 365.369 282.8 371.769C299.867 376.302 329.067 376.169 352.8 371.236C376.933 366.169 423.867 353.369 421.467 352.436C416.933 350.702 391.733 346.302 375.333 344.302C365.6 343.102 347.067 341.769 334 341.236L310.133 340.302L329.467 336.036C362.933 328.702 378.267 327.102 416.8 327.102C461.2 327.102 485.467 330.436 525.2 342.302C575.733 357.369 612.8 378.436 676.133 428.436C731.6 472.169 758.533 484.702 803.467 487.769C824.4 489.236 830.4 490.436 838.267 495.102C842.933 497.769 853.067 509.902 851.733 511.102C851.6 511.369 848.667 510.569 845.467 509.502C837.2 506.702 830.133 508.036 820 514.436C805.067 523.769 803.333 524.302 788.933 524.302H775.867L776.8 532.036C779.067 552.969 790.4 566.969 809.333 572.436C813.467 573.636 817.733 574.836 818.8 575.236C821.333 575.902 811.867 581.369 799.067 586.569C776.933 595.369 748.667 600.836 695.467 606.302C614.533 614.569 572.4 624.169 535.467 642.702C499.467 660.702 465.6 694.836 452.267 726.702C445.467 743.102 443.867 750.969 443.2 770.302C442.667 785.502 442.933 790.169 445.333 800.036C455.867 844.569 492.533 880.436 539.733 892.436C556.133 896.569 583.2 897.902 672.133 899.102C762 900.302 796.4 897.769 830.667 887.636C900.533 866.836 953.867 808.302 969.6 735.369C973.6 717.236 974.533 681.102 971.6 661.236C966.4 626.036 951.6 591.102 932.133 568.036C928.133 563.236 924.267 558.569 923.6 557.636C922.8 556.569 925.6 551.369 932 541.902C947.733 518.702 958.667 492.169 963.733 464.569C966.933 447.369 966.933 410.169 963.6 393.636C950.533 327.369 907.867 274.036 847.067 247.636C831.333 240.836 808.4 234.702 792.133 232.969C780.667 231.769 265.867 230.302 198.933 231.369Z" fill="black"/>
    <path d="M128.8 385.636C131.733 426.702 139.333 455.636 155.867 488.302C180.267 536.836 221.867 578.302 270.133 601.902C277.333 605.369 277.6 605.769 276.8 609.636C271.6 635.369 270.267 649.236 270.267 682.969C270.133 709.902 270.667 721.102 272.533 732.969C287.467 828.836 331.2 906.169 404.933 967.502C409.467 971.236 413.6 974.302 414.133 974.302C414.533 974.302 412.267 970.836 409.067 966.569C387.333 938.436 371.467 904.569 362.133 866.969C340.667 779.902 359.867 692.702 415.733 622.969C429.067 606.302 451.867 584.302 467.067 573.236C481.6 562.836 511.067 548.436 534.667 540.436C570 528.302 618.8 518.302 642.533 518.302H655.467L641.2 512.569C623.867 505.502 611.467 498.169 588 480.836C550.667 453.369 520.133 442.302 481.467 442.302C462.667 442.302 453.733 443.902 410.133 454.969C360.667 467.502 346.933 469.502 312.133 469.502C287.467 469.502 281.467 469.102 269.467 466.436C229.467 457.902 196.133 440.969 162.533 412.036C152.933 403.902 148 398.569 130.8 378.302L128 374.969L128.8 385.636ZM527.467 481.502C531.2 482.702 536 485.102 538.133 486.836L542.133 490.036L538.933 493.502C530.133 502.969 512.8 499.502 509.333 487.502C508.133 483.636 506.533 481.636 503.6 480.169C499.733 478.436 500.133 478.302 510.133 478.969C516 479.236 523.867 480.436 527.467 481.502Z" fill="black"/>
</svg>
